<?xml version="1.0" encoding="utf-8"?>
<!-- Generator: Adobe Illustrator 16.0.0, SVG Export Plug-In . SVG Version: 6.00 Build 0)  -->
<!DOCTYPE svg PUBLIC "-//W3C//DTD SVG 1.1//EN" "http://www.w3.org/Graphics/SVG/1.1/DTD/svg11.dtd">
<svg version="1.1" id="Layer_1" xmlns="http://www.w3.org/2000/svg" xmlns:xlink="http://www.w3.org/1999/xlink" x="0px" y="0px"
	 width="1920px" height="1080px" viewBox="0 0 1920 1080" enable-background="new 0 0 1920 1080" xml:space="preserve">
<line fill="none" stroke="#000000" stroke-miterlimit="10" x1="1662.25" y1="746.75" x2="1582.1" y2="746.75"/>
<line fill="none" stroke="#000000" stroke-miterlimit="10" x1="1662.25" y1="752.75" x2="1588.75" y2="752.75"/>
<line fill="none" stroke="#000000" stroke-miterlimit="10" x1="1662.25" y1="756.75" x2="1588.75" y2="756.75"/>
<line fill="none" stroke="#000000" stroke-miterlimit="10" x1="1662.25" y1="762.75" x2="1588.75" y2="762.75"/>
<line fill="none" stroke="#000000" stroke-miterlimit="10" x1="1662.25" y1="768.75" x2="1563" y2="768.75"/>
<line fill="none" stroke="#000000" stroke-miterlimit="10" x1="1662.25" y1="773.75" x2="1588.75" y2="773.75"/>
<line fill="none" stroke="#000000" stroke-miterlimit="10" x1="1662.25" y1="779.25" x2="1588.75" y2="779.25"/>
<line fill="none" stroke="#000000" stroke-miterlimit="10" x1="1662.25" y1="784.25" x2="1588.75" y2="784.25"/>
<line fill="none" stroke="#000000" stroke-miterlimit="10" x1="1662.25" y1="788.75" x2="1588.75" y2="788.75"/>
<line fill="none" stroke="#000000" stroke-miterlimit="10" x1="1662.25" y1="796.75" x2="1588.75" y2="796.75"/>
<line fill="none" stroke="#000000" stroke-miterlimit="10" x1="1662.25" y1="801.75" x2="1588.75" y2="801.75"/>
<line fill="none" stroke="#000000" stroke-miterlimit="10" x1="1507.25" y1="824.5" x2="1495.5" y2="812.75"/>
<line fill="none" stroke="#000000" stroke-miterlimit="10" x1="1495.5" y1="812.75" x2="1483.75" y2="824.5"/>
<line fill="none" stroke="#000000" stroke-miterlimit="10" x1="1483.75" y1="824.5" x2="1495.5" y2="836.25"/>
<line fill="none" stroke="#000000" stroke-miterlimit="10" x1="1495.5" y1="836.25" x2="1507.25" y2="824.5"/>
<line fill="none" stroke="#000000" stroke-miterlimit="10" x1="1483.75" y1="824.5" x2="1463.792" y2="804.542"/>
<line fill="none" stroke="#000000" stroke-miterlimit="10" x1="1463.792" y1="804.542" x2="1499.583" y2="768.75"/>
<line fill="none" stroke="#000000" stroke-miterlimit="10" x1="1354.53" y1="851.737" x2="1496" y2="851.8"/>
<line fill="none" stroke="#000000" stroke-miterlimit="10" x1="1588.75" y1="801.75" x2="1391.546" y2="998.879"/>
<line fill="none" stroke="#000000" stroke-miterlimit="10" x1="1495.5" y1="836.25" x2="1495.5" y2="851.8"/>
<line fill="none" stroke="#000000" stroke-miterlimit="10" x1="675" y1="965.2" x2="708.679" y2="998.879"/>
<line fill="none" stroke="#000000" stroke-miterlimit="10" x1="1391.546" y1="998.879" x2="708.679" y2="998.879"/>
<line fill="none" stroke="#000000" stroke-miterlimit="10" x1="1588.75" y1="773.75" x2="1495.25" y2="867.25"/>
<line fill="none" stroke="#000000" stroke-miterlimit="10" x1="1495.5" y1="851.8" x2="1495.5" y2="867.25"/>
<line fill="none" stroke="#000000" stroke-miterlimit="10" x1="1314.05" y1="867.291" x2="1495.5" y2="867.25"/>
<line fill="none" stroke="#000000" stroke-miterlimit="10" x1="1588.75" y1="779.25" x2="1500.75" y2="867.25"/>
<line fill="none" stroke="#000000" stroke-miterlimit="10" x1="1495.5" y1="867.25" x2="1500.75" y2="867.25"/>
<line fill="none" stroke="#000000" stroke-miterlimit="10" x1="1241.9" y1="908.5" x2="1459.688" y2="908.5"/>
<line fill="none" stroke="#000000" stroke-miterlimit="10" x1="1500.75" y1="867.25" x2="1459.688" y2="908.5"/>
<line fill="none" stroke="#000000" stroke-miterlimit="10" x1="914" y1="977.5" x2="1043.5" y2="977.5"/>
<line fill="none" stroke="#000000" stroke-miterlimit="10" x1="1588.75" y1="784.25" x2="1436.1" y2="936.9"/>
<line fill="none" stroke="#000000" stroke-miterlimit="10" x1="1241.9" y1="936.9" x2="1436.1" y2="936.9"/>
<line fill="none" stroke="#000000" stroke-miterlimit="10" x1="1241.9" y1="908.5" x2="1241.9" y2="936.9"/>
<line fill="none" stroke="#000000" stroke-miterlimit="10" x1="1156.9" y1="936.9" x2="1241.9" y2="936.9"/>
<line fill="none" stroke="#000000" stroke-miterlimit="10" x1="1588.75" y1="796.75" x2="1407.5" y2="977.5"/>
<line fill="none" stroke="#000000" stroke-miterlimit="10" x1="1043.5" y1="977.5" x2="1407.5" y2="977.5"/>
<line fill="none" stroke="#000000" stroke-miterlimit="10" x1="1588.75" y1="788.75" x2="1404.8" y2="972.7"/>
<line fill="none" stroke="#000000" stroke-miterlimit="10" x1="1079.3" y1="972.7" x2="1404.8" y2="972.7"/>
<line fill="none" stroke="#000000" stroke-miterlimit="10" x1="1664.833" y1="738.5" x2="1638.8" y2="738.5"/>
<line fill="none" stroke="#000000" stroke-miterlimit="10" x1="1638.8" y1="738.5" x2="1582.1" y2="738.5"/>
<line fill="none" stroke="#000000" stroke-miterlimit="10" x1="1582.1" y1="738.5" x2="1582.1" y2="746.75"/>
<line fill="none" stroke="#000000" stroke-miterlimit="10" x1="1588.75" y1="762.75" x2="1521.333" y2="762.75"/>
<line fill="none" stroke="#000000" stroke-miterlimit="10" x1="1505.509" y1="746.908" x2="1521.333" y2="762.75"/>
<line fill="none" stroke="#000000" stroke-miterlimit="10" x1="1499.583" y1="768.75" x2="1505.604" y2="762.729"/>
<line fill="none" stroke="#000000" stroke-miterlimit="10" x1="1505.604" y1="762.729" x2="1521.333" y2="762.751"/>
<line fill="none" stroke="#000000" stroke-miterlimit="10" x1="1507.25" y1="824.5" x2="1563" y2="768.75"/>
<line fill="none" stroke="#000000" stroke-miterlimit="10" x1="1499.583" y1="768.75" x2="1563" y2="768.75"/>
<line fill="none" stroke="#000000" stroke-miterlimit="10" x1="1588.75" y1="752.75" x2="1569.75" y2="752.75"/>
<line fill="none" stroke="#000000" stroke-miterlimit="10" x1="1588.75" y1="756.75" x2="1588.75" y2="752.75"/>
<line fill="none" stroke="#000000" stroke-miterlimit="10" x1="1525.4" y1="738.5" x2="1543.638" y2="756.737"/>
<line fill="none" stroke="#000000" stroke-miterlimit="10" x1="1588.75" y1="756.75" x2="1543.638" y2="756.737"/>
<line fill="none" stroke="#000000" stroke-miterlimit="10" x1="1569.75" y1="752.75" x2="1553.7" y2="738.5"/>
<line fill="none" stroke="#000000" stroke-miterlimit="10" x1="1525.4" y1="738.5" x2="1553.7" y2="738.5"/>
<line fill="none" stroke="#FA110D" stroke-miterlimit="10" x1="119.294" y1="786.004" x2="223.281" y2="944.47"/>
<line fill="none" stroke="#FA110D" stroke-miterlimit="10" x1="239.045" y1="752.433" x2="228.223" y2="930.919"/>
<line fill="none" stroke="#FA110D" stroke-miterlimit="10" x1="411.935" y1="760.615" x2="445.976" y2="882.04"/>
<line fill="none" stroke="#FA110D" stroke-miterlimit="10" x1="329.292" y1="787.02" x2="361.364" y2="788.065"/>
<line fill="none" stroke="#FA110D" stroke-miterlimit="10" x1="361.364" y1="788.065" x2="381.078" y2="806.425"/>
<line fill="none" stroke="#FA110D" stroke-miterlimit="10" x1="381.078" y1="806.425" x2="392.041" y2="831.677"/>
<line fill="none" stroke="#FA110D" stroke-miterlimit="10" x1="361.538" y1="902.458" x2="388.504" y2="884.881"/>
<line fill="none" stroke="#FA110D" stroke-miterlimit="10" x1="388.504" y1="884.881" x2="395.802" y2="858.948"/>
<line fill="none" stroke="#FA110D" stroke-miterlimit="10" x1="395.802" y1="858.948" x2="392.041" y2="831.677"/>
<line fill="none" stroke="#FA110D" stroke-miterlimit="10" x1="486.909" y1="742.835" x2="522.915" y2="742.776"/>
<line fill="none" stroke="#FA110D" stroke-miterlimit="10" x1="522.915" y1="742.776" x2="544.458" y2="760.623"/>
<line fill="none" stroke="#FA110D" stroke-miterlimit="10" x1="544.458" y1="760.623" x2="555.91" y2="785.739"/>
<line fill="none" stroke="#FA110D" stroke-miterlimit="10" x1="519.267" y1="858.259" x2="550.056" y2="839.592"/>
<line fill="none" stroke="#FA110D" stroke-miterlimit="10" x1="550.056" y1="839.592" x2="559.183" y2="813.146"/>
<line fill="none" stroke="#FA110D" stroke-miterlimit="10" x1="559.183" y1="813.146" x2="555.91" y2="785.739"/>
<line fill="none" stroke="#FA110D" stroke-miterlimit="10" x1="329.292" y1="787.02" x2="302.388" y2="804.599"/>
<line fill="none" stroke="#FA110D" stroke-miterlimit="10" x1="302.388" y1="804.599" x2="295.091" y2="830.531"/>
<line fill="none" stroke="#FA110D" stroke-miterlimit="10" x1="295.091" y1="830.531" x2="298.851" y2="857.802"/>
<line fill="none" stroke="#FA110D" stroke-miterlimit="10" x1="361.538" y1="902.458" x2="329.529" y2="901.414"/>
<line fill="none" stroke="#FA110D" stroke-miterlimit="10" x1="329.529" y1="901.414" x2="309.814" y2="883.054"/>
<line fill="none" stroke="#FA110D" stroke-miterlimit="10" x1="309.814" y1="883.054" x2="298.851" y2="857.802"/>
<line fill="none" stroke="#FA110D" stroke-miterlimit="10" x1="457.599" y1="756.068" x2="486.909" y2="742.835"/>
<line fill="none" stroke="#FA110D" stroke-miterlimit="10" x1="487.348" y1="862.188" x2="519.267" y2="858.259"/>
<line fill="none" stroke="#FA110D" stroke-miterlimit="10" x1="903.484" y1="626.053" x2="872.695" y2="644.721"/>
<line fill="none" stroke="#FA110D" stroke-miterlimit="10" x1="872.695" y1="644.721" x2="863.568" y2="671.166"/>
<line fill="none" stroke="#FA110D" stroke-miterlimit="10" x1="863.568" y1="671.166" x2="866.84" y2="698.573"/>
<line fill="none" stroke="#FA110D" stroke-miterlimit="10" x1="935.842" y1="741.479" x2="899.836" y2="741.535"/>
<line fill="none" stroke="#FA110D" stroke-miterlimit="10" x1="899.836" y1="741.535" x2="878.292" y2="723.688"/>
<line fill="none" stroke="#FA110D" stroke-miterlimit="10" x1="878.292" y1="723.688" x2="866.84" y2="698.573"/>
<line fill="none" stroke="#FA110D" stroke-miterlimit="10" x1="935.402" y1="622.122" x2="903.484" y2="626.053"/>
<line fill="none" stroke="#FA110D" stroke-miterlimit="10" x1="965.151" y1="728.244" x2="935.842" y2="741.479"/>
<line fill="none" stroke="#FA110D" stroke-miterlimit="10" x1="457.599" y1="756.068" x2="487.348" y2="862.188"/>
<line fill="none" stroke="#FA110D" stroke-miterlimit="10" x1="663.268" y1="821.126" x2="629.284" y2="699.037"/>
<line fill="none" stroke="#FA110D" stroke-miterlimit="10" x1="740.475" y1="799.481" x2="632.435" y2="698.154"/>
<line fill="none" stroke="#FA110D" stroke-miterlimit="10" x1="706.267" y1="677.455" x2="740.475" y2="799.481"/>
<line fill="none" stroke="#FA110D" stroke-miterlimit="10" x1="778.747" y1="657.138" x2="775.567" y2="741.061"/>
<line fill="none" stroke="#FA110D" stroke-miterlimit="10" x1="833.192" y1="724.906" x2="775.567" y2="741.061"/>
<line fill="none" stroke="#FA110D" stroke-miterlimit="10" x1="786.85" y1="654.865" x2="833.192" y2="724.906"/>
<line fill="none" stroke="#FA110D" stroke-miterlimit="10" x1="774.465" y1="789.954" x2="775.567" y2="741.061"/>
<line fill="none" stroke="#FA110D" stroke-miterlimit="10" x1="859.325" y1="766.164" x2="833.192" y2="724.906"/>
<line fill="none" stroke="#FA110D" stroke-miterlimit="10" x1="1284.761" y1="515.283" x2="1281.58" y2="599.207"/>
<line fill="none" stroke="#FA110D" stroke-miterlimit="10" x1="1339.206" y1="583.053" x2="1281.58" y2="599.207"/>
<line fill="none" stroke="#FA110D" stroke-miterlimit="10" x1="1292.864" y1="513.011" x2="1339.206" y2="583.053"/>
<line fill="none" stroke="#FA110D" stroke-miterlimit="10" x1="1280.479" y1="648.1" x2="1281.58" y2="599.207"/>
<line fill="none" stroke="#FA110D" stroke-miterlimit="10" x1="1365.338" y1="624.31" x2="1339.206" y2="583.053"/>
<line fill="none" stroke="#FA110D" stroke-miterlimit="10" x1="961.599" y1="605.877" x2="977.838" y2="663.802"/>
<line fill="none" stroke="#FA110D" stroke-miterlimit="10" x1="995.807" y1="727.903" x2="977.838" y2="663.802"/>
<line fill="none" stroke="#FA110D" stroke-miterlimit="10" x1="1036.931" y1="584.759" x2="1053.169" y2="642.685"/>
<line fill="none" stroke="#FA110D" stroke-miterlimit="10" x1="1071.14" y1="706.784" x2="1053.169" y2="642.685"/>
<line fill="none" stroke="#FA110D" stroke-miterlimit="10" x1="977.838" y1="663.802" x2="1053.169" y2="642.685"/>
<line fill="none" stroke="#FA110D" stroke-miterlimit="10" x1="1060.308" y1="585.006" x2="1104.726" y2="572.554"/>
<line fill="none" stroke="#FA110D" stroke-miterlimit="10" x1="1137.168" y1="688.274" x2="1104.726" y2="572.554"/>
<line fill="none" stroke="#FA110D" stroke-miterlimit="10" x1="1149.745" y1="559.932" x2="1104.726" y2="572.554"/>
<line fill="none" stroke="#FA110D" stroke-miterlimit="10" x1="1169.588" y1="547.57" x2="1201.896" y2="662.819"/>
<line fill="none" stroke="#FA110D" stroke-miterlimit="10" x1="1262.222" y1="645.908" x2="1201.896" y2="662.819"/>
<line fill="none" stroke="#FA110D" stroke-miterlimit="10" x1="1368.24" y1="498.682" x2="1382.249" y2="548.654"/>
<line fill="none" stroke="#FA110D" stroke-miterlimit="10" x1="1417.213" y1="538.852" x2="1382.249" y2="548.654"/>
<line fill="none" stroke="#FA110D" stroke-miterlimit="10" x1="1431.128" y1="517.472" x2="1417.213" y2="538.852"/>
<line fill="none" stroke="#FA110D" stroke-miterlimit="10" x1="1423.891" y1="491.659" x2="1431.128" y2="517.472"/>
<line fill="none" stroke="#FA110D" stroke-miterlimit="10" x1="1400.88" y1="486.942" x2="1423.891" y2="491.659"/>
<line fill="none" stroke="#FA110D" stroke-miterlimit="10" x1="1368.24" y1="498.682" x2="1400.88" y2="486.942"/>
<line fill="none" stroke="#FA110D" stroke-miterlimit="10" x1="1398.909" y1="608.079" x2="1382.249" y2="548.654"/>
<line fill="none" stroke="#FA110D" stroke-miterlimit="10" x1="1417.213" y1="538.852" x2="1442.688" y2="547.734"/>
<line fill="none" stroke="#FA110D" stroke-miterlimit="10" x1="1442.688" y1="547.734" x2="1452.117" y2="566.941"/>
<line fill="none" stroke="#FA110D" stroke-miterlimit="10" x1="1452.117" y1="566.941" x2="1445.84" y2="589.581"/>
<line fill="none" stroke="#FA110D" stroke-miterlimit="10" x1="1445.84" y1="589.581" x2="1426.764" y2="602.373"/>
<line fill="none" stroke="#FA110D" stroke-miterlimit="10" x1="1426.764" y1="602.373" x2="1398.909" y2="608.079"/>
<line fill="none" stroke="#FA110D" stroke-miterlimit="10" x1="1529.137" y1="546.645" x2="1528.987" y2="546.688"/>
<line fill="none" stroke="#000000" stroke-miterlimit="10" x1="228.223" y1="930.919" x2="275" y2="930.919"/>
<line fill="none" stroke="#000000" stroke-miterlimit="10" x1="223.281" y1="944.47" x2="261.449" y2="944.47"/>
<line fill="none" stroke="#000000" stroke-miterlimit="10" x1="275" y1="930.919" x2="261.449" y2="944.47"/>
<line fill="none" stroke="#000000" stroke-miterlimit="10" x1="275" y1="930.919" x2="308.391" y2="964.31"/>
<line fill="none" stroke="#000000" stroke-miterlimit="10" x1="308.391" y1="964.31" x2="361.364" y2="964.31"/>
<line fill="none" stroke="#000000" stroke-miterlimit="10" x1="361.364" y1="964.31" x2="361.538" y2="902.458"/>
<line fill="none" stroke="#000000" stroke-miterlimit="10" x1="445.976" y1="882.04" x2="481.172" y2="917.236"/>
<line fill="none" stroke="#000000" stroke-miterlimit="10" x1="487.348" y1="862.188" x2="487.348" y2="917.236"/>
<line fill="none" stroke="#000000" stroke-miterlimit="10" x1="388.504" y1="884.881" x2="445.976" y2="884.881"/>
<line fill="none" stroke="#000000" stroke-miterlimit="10" x1="445.976" y1="882.04" x2="445.976" y2="884.881"/>
<line fill="none" stroke="#000000" stroke-miterlimit="10" x1="481.172" y1="917.236" x2="487.348" y2="917.236"/>
<line fill="none" stroke="#000000" stroke-miterlimit="10" x1="361.364" y1="964.31" x2="534.661" y2="964.31"/>
<line fill="none" stroke="#000000" stroke-miterlimit="10" x1="487.348" y1="917.236" x2="528.003" y2="957.686"/>
<line fill="none" stroke="#000000" stroke-miterlimit="10" x1="914" y1="977.5" x2="708.679" y2="977.5"/>
<line fill="none" stroke="#000000" stroke-miterlimit="10" x1="708.679" y1="977.5" x2="673.476" y2="942.297"/>
<line fill="none" stroke="#000000" stroke-miterlimit="10" x1="675" y1="965.2" x2="534.661" y2="964.31"/>
<line fill="none" stroke="#000000" stroke-miterlimit="10" x1="487.348" y1="917.236" x2="673.476" y2="917.236"/>
<line fill="none" stroke="#000000" stroke-miterlimit="10" x1="673.476" y1="917.236" x2="673.476" y2="942.297"/>
<line fill="none" stroke="#000000" stroke-miterlimit="10" x1="663.268" y1="821.126" x2="673.559" y2="831.417"/>
<line fill="none" stroke="#000000" stroke-miterlimit="10" x1="673.559" y1="831.417" x2="673.559" y2="917.236"/>
<line fill="none" stroke="#000000" stroke-miterlimit="10" x1="740.475" y1="799.481" x2="740.475" y2="972.7"/>
<line fill="none" stroke="#000000" stroke-miterlimit="10" x1="774.465" y1="789.954" x2="859.081" y2="874.57"/>
<line fill="none" stroke="#000000" stroke-miterlimit="10" x1="859.325" y1="766.164" x2="859.325" y2="874.57"/>
<line fill="none" stroke="#000000" stroke-miterlimit="10" x1="859.325" y1="874.57" x2="859.325" y2="972.7"/>
<line fill="none" stroke="#000000" stroke-miterlimit="10" x1="740.475" y1="972.7" x2="859.325" y2="972.7"/>
<line fill="none" stroke="#000000" stroke-miterlimit="10" x1="859.325" y1="766.164" x2="899.836" y2="806.833"/>
<line fill="none" stroke="#000000" stroke-miterlimit="10" x1="899.836" y1="741.535" x2="899.836" y2="806.833"/>
<line fill="none" stroke="#000000" stroke-miterlimit="10" x1="899.836" y1="806.833" x2="934.922" y2="841.92"/>
<line fill="none" stroke="#000000" stroke-miterlimit="10" x1="934.922" y1="841.92" x2="934.922" y2="883.5"/>
<line fill="none" stroke="#000000" stroke-miterlimit="10" x1="934.922" y1="841.92" x2="945.651" y2="852.648"/>
<line fill="none" stroke="#000000" stroke-miterlimit="10" x1="945.651" y1="852.648" x2="945.651" y2="894.229"/>
<line fill="none" stroke="#000000" stroke-miterlimit="10" x1="934.922" y1="883.5" x2="945.651" y2="894.229"/>
<line fill="none" stroke="#000000" stroke-miterlimit="10" x1="945.651" y1="894.229" x2="1023.895" y2="972.473"/>
<line fill="none" stroke="#000000" stroke-miterlimit="10" x1="1023.895" y1="972.473" x2="859.325" y2="972.7"/>
<line fill="none" stroke="#000000" stroke-miterlimit="10" x1="1023.895" y1="972.473" x2="1079.3" y2="972.7"/>
<line fill="none" stroke="#000000" stroke-miterlimit="10" x1="673.476" y1="917.236" x2="649.758" y2="893.519"/>
<line fill="none" stroke="#000000" stroke-miterlimit="10" x1="649.758" y1="893.519" x2="511.005" y2="893.519"/>
<line fill="none" stroke="#000000" stroke-miterlimit="10" x1="487.348" y1="917.236" x2="511.035" y2="893.549"/>
<line fill="none" stroke="#000000" stroke-miterlimit="10" x1="774.465" y1="789.954" x2="774.465" y2="807.71"/>
<line fill="none" stroke="#000000" stroke-miterlimit="10" x1="859.081" y1="874.57" x2="841" y2="874.57"/>
<line fill="none" stroke="#000000" stroke-miterlimit="10" x1="841.325" y1="874.57" x2="774.465" y2="807.71"/>
<line fill="none" stroke="#000000" stroke-miterlimit="10" x1="935.842" y1="741.479" x2="977.838" y2="741.479"/>
<line fill="none" stroke="#000000" stroke-miterlimit="10" x1="965.151" y1="728.244" x2="978.111" y2="741.205"/>
<line fill="none" stroke="#000000" stroke-miterlimit="10" x1="978.111" y1="741.205" x2="1067.186" y2="830.083"/>
<line fill="none" stroke="#000000" stroke-miterlimit="10" x1="995.807" y1="727.903" x2="1067.186" y2="799.282"/>
<line fill="none" stroke="#000000" stroke-miterlimit="10" x1="1067.186" y1="799.282" x2="1067.186" y2="830.083"/>
<line fill="none" stroke="#000000" stroke-miterlimit="10" x1="1067.186" y1="830.083" x2="1067.186" y2="960.586"/>
<line fill="none" stroke="#000000" stroke-miterlimit="10" x1="1079.3" y1="972.7" x2="1067.186" y2="960.586"/>
<line fill="none" stroke="#000000" stroke-miterlimit="10" x1="1067.186" y1="960.586" x2="1090.561" y2="937.211"/>
<line fill="none" stroke="#000000" stroke-miterlimit="10" x1="1090.561" y1="937.211" x2="1156.9" y2="936.9"/>
<line fill="none" stroke="#000000" stroke-miterlimit="10" x1="1090.561" y1="937.211" x2="1090.561" y2="728.244"/>
<line fill="none" stroke="#000000" stroke-miterlimit="10" x1="1071.14" y1="706.784" x2="1090.561" y2="728.244"/>
<line fill="none" stroke="#000000" stroke-miterlimit="10" x1="945.651" y1="852.648" x2="968.333" y2="830.083"/>
<line fill="none" stroke="#000000" stroke-miterlimit="10" x1="968.333" y1="830.083" x2="1067.186" y2="830.083"/>
<line fill="none" stroke="#000000" stroke-miterlimit="10" x1="841.325" y1="874.57" x2="740.475" y2="972.7"/>
<line fill="none" stroke="#000000" stroke-miterlimit="10" x1="550.056" y1="839.592" x2="585.982" y2="875.518"/>
<line fill="none" stroke="#000000" stroke-miterlimit="10" x1="649.758" y1="893.519" x2="632.096" y2="875.856"/>
<line fill="none" stroke="#000000" stroke-miterlimit="10" x1="632.096" y1="875.856" x2="585.982" y2="875.518"/>
<line fill="none" stroke="#000000" stroke-miterlimit="10" x1="1445.84" y1="589.581" x2="1445.84" y2="602.373"/>
<line fill="none" stroke="#000000" stroke-miterlimit="10" x1="1525.4" y1="738.5" x2="1427.51" y2="738.5"/>
<line fill="none" stroke="#000000" stroke-miterlimit="10" x1="1427.51" y1="738.5" x2="1426.764" y2="602.373"/>
<line fill="none" stroke="#000000" stroke-miterlimit="10" x1="1505.509" y1="746.908" x2="1398.909" y2="747.619"/>
<line fill="none" stroke="#000000" stroke-miterlimit="10" x1="1398.909" y1="747.619" x2="1398.909" y2="608.079"/>
<line fill="none" stroke="#000000" stroke-miterlimit="10" x1="1427.51" y1="738.5" x2="1442.688" y2="717.514"/>
<line fill="none" stroke="#000000" stroke-miterlimit="10" x1="1426.764" y1="602.373" x2="1443.373" y2="618.982"/>
<line fill="none" stroke="#000000" stroke-miterlimit="10" x1="1443.373" y1="618.982" x2="1442.688" y2="717.514"/>
<line fill="none" stroke="#000000" stroke-miterlimit="10" x1="1365.338" y1="624.31" x2="1365.338" y2="765.333"/>
<line fill="none" stroke="#000000" stroke-miterlimit="10" x1="1365.338" y1="765.333" x2="1404.674" y2="804.668"/>
<line fill="none" stroke="#000000" stroke-miterlimit="10" x1="1404.674" y1="804.668" x2="1463.792" y2="804.542"/>
<line fill="none" stroke="#000000" stroke-miterlimit="10" x1="1262.222" y1="645.908" x2="1279.806" y2="663.492"/>
<line fill="none" stroke="#000000" stroke-miterlimit="10" x1="1280.479" y1="648.1" x2="1279.806" y2="663.492"/>
<line fill="none" stroke="#000000" stroke-miterlimit="10" x1="1201.896" y1="662.819" x2="1221.539" y2="682.461"/>
<line fill="none" stroke="#000000" stroke-miterlimit="10" x1="1221.539" y1="682.461" x2="1279.806" y2="682.461"/>
<line fill="none" stroke="#000000" stroke-miterlimit="10" x1="1279.806" y1="682.461" x2="1279.806" y2="663.492"/>
<line fill="none" stroke="#000000" stroke-miterlimit="10" x1="1137.168" y1="688.274" x2="1137.168" y2="862.71"/>
<line fill="none" stroke="#000000" stroke-miterlimit="10" x1="1137.168" y1="862.71" x2="1182.5" y2="908.5"/>
<line fill="none" stroke="#000000" stroke-miterlimit="10" x1="1182.5" y1="908.5" x2="1241.9" y2="908.5"/>
<line fill="none" stroke="#000000" stroke-miterlimit="10" x1="1137.168" y1="688.274" x2="1156.346" y2="707.452"/>
<line fill="none" stroke="#000000" stroke-miterlimit="10" x1="1156.346" y1="707.452" x2="1156.346" y2="867.333"/>
<line fill="none" stroke="#000000" stroke-miterlimit="10" x1="1156.346" y1="867.333" x2="1314.05" y2="867.291"/>
<line fill="none" stroke="#000000" stroke-miterlimit="10" x1="1314.05" y1="867.291" x2="1241.9" y2="908.5"/>
<line fill="none" stroke="#000000" stroke-miterlimit="10" x1="1365.338" y1="765.333" x2="1342.797" y2="765.333"/>
<line fill="none" stroke="#000000" stroke-miterlimit="10" x1="1279.806" y1="682.461" x2="1342.797" y2="745.453"/>
<line fill="none" stroke="#000000" stroke-miterlimit="10" x1="1342.797" y1="745.453" x2="1342.797" y2="765.333"/>
<line fill="none" stroke="#000000" stroke-miterlimit="10" x1="1221.539" y1="682.461" x2="1354.53" y2="815.452"/>
<line fill="none" stroke="#000000" stroke-miterlimit="10" x1="1354.53" y1="815.452" x2="1354.53" y2="851.737"/>
<line fill="none" stroke="#000000" stroke-miterlimit="10" x1="1365.338" y1="624.31" x2="1381.889" y2="640.86"/>
<line fill="none" stroke="#000000" stroke-miterlimit="10" x1="1381.889" y1="640.86" x2="1381.889" y2="730.6"/>
<line fill="none" stroke="#000000" stroke-miterlimit="10" x1="1398.909" y1="747.619" x2="1381.889" y2="730.6"/>
<line fill="none" stroke="#000000" stroke-miterlimit="10" x1="1354.53" y1="815.452" x2="1201.896" y2="815.452"/>
<line fill="none" stroke="#000000" stroke-miterlimit="10" x1="1201.896" y1="815.452" x2="1201.896" y2="662.819"/>
<line fill="none" stroke="#000000" stroke-miterlimit="10" x1="445.976" y1="884.881" x2="445.976" y2="940.773"/>
<line fill="none" stroke="#000000" stroke-miterlimit="10" x1="445.976" y1="940.773" x2="462.888" y2="957.686"/>
<line fill="none" stroke="#000000" stroke-miterlimit="10" x1="462.888" y1="957.686" x2="528.003" y2="957.686"/>
<line fill="none" stroke="#000000" stroke-miterlimit="10" x1="528.003" y1="957.686" x2="534.661" y2="964.31"/>
<line fill="none" stroke="#000000" stroke-miterlimit="10" x1="1169.588" y1="547.57" x2="1169.588" y2="478.667"/>
<line fill="none" stroke="#000000" stroke-miterlimit="10" x1="1284.761" y1="515.283" x2="1248.072" y2="478.594"/>
<line fill="none" stroke="#000000" stroke-miterlimit="10" x1="1248.072" y1="478.594" x2="1169.588" y2="478.594"/>
<line fill="none" stroke="#000000" stroke-miterlimit="10" x1="1292.864" y1="513.011" x2="1249.13" y2="469.276"/>
<line fill="none" stroke="#000000" stroke-miterlimit="10" x1="1249.13" y1="469.276" x2="1149.745" y2="469.276"/>
<line fill="none" stroke="#000000" stroke-miterlimit="10" x1="1149.745" y1="559.932" x2="1149.745" y2="513.011"/>
<line fill="none" stroke="#000000" stroke-miterlimit="10" x1="1149.745" y1="469.276" x2="1149.745" y2="513.011"/>
<line fill="none" stroke="#000000" stroke-miterlimit="10" x1="1249.13" y1="469.276" x2="1249.13" y2="402.667"/>
<line fill="none" stroke="#000000" stroke-miterlimit="10" x1="1060.308" y1="585.006" x2="1034.738" y2="559.437"/>
<line fill="none" stroke="#000000" stroke-miterlimit="10" x1="1034.738" y1="559.437" x2="961.599" y2="559.437"/>
<line fill="none" stroke="#000000" stroke-miterlimit="10" x1="1036.931" y1="584.759" x2="961.599" y2="584.759"/>
<line fill="none" stroke="#000000" stroke-miterlimit="10" x1="961.599" y1="605.877" x2="961.599" y2="584.759"/>
<line fill="none" stroke="#000000" stroke-miterlimit="10" x1="961.599" y1="559.437" x2="961.599" y2="584.759"/>
<line fill="none" stroke="#000000" stroke-miterlimit="10" x1="1368.24" y1="498.682" x2="1319.761" y2="450.203"/>
<line fill="none" stroke="#000000" stroke-miterlimit="10" x1="1319.761" y1="450.203" x2="1319.761" y2="331.333"/>
<line fill="none" stroke="#000000" stroke-miterlimit="10" x1="1368.24" y1="498.682" x2="1368.24" y2="450.203"/>
<line fill="none" stroke="#000000" stroke-miterlimit="10" x1="1368.24" y1="450.203" x2="1336" y2="450.203"/>
<line fill="none" stroke="#000000" stroke-miterlimit="10" x1="1336" y1="450.203" x2="1336" y2="331.333"/>
<line fill="none" stroke="#000000" stroke-miterlimit="10" x1="1368.24" y1="450.203" x2="1368.24" y2="331.333"/>
<line fill="none" stroke="#000000" stroke-miterlimit="10" x1="1368.24" y1="331.333" x2="1336" y2="331.333"/>
<line fill="none" stroke="#000000" stroke-miterlimit="10" x1="1319.761" y1="331.333" x2="1336" y2="331.333"/>
<line fill="none" stroke="#000000" stroke-miterlimit="10" x1="1400.88" y1="486.942" x2="1368.24" y2="450.203"/>
<line fill="none" stroke="#000000" stroke-miterlimit="10" x1="935.402" y1="622.122" x2="935.402" y2="559.437"/>
<line fill="none" stroke="#000000" stroke-miterlimit="10" x1="961.599" y1="559.437" x2="935.402" y2="534.855"/>
<line fill="none" stroke="#000000" stroke-miterlimit="10" x1="935.402" y1="559.437" x2="935.402" y2="534.855"/>
<line fill="none" stroke="#000000" stroke-miterlimit="10" x1="935.402" y1="534.855" x2="871.194" y2="470.648"/>
<line fill="none" stroke="#000000" stroke-miterlimit="10" x1="786.85" y1="654.865" x2="786.85" y2="572.554"/>
<line fill="none" stroke="#000000" stroke-miterlimit="10" x1="778.747" y1="657.138" x2="778.747" y2="605.195"/>
<line fill="none" stroke="#000000" stroke-miterlimit="10" x1="778.747" y1="605.195" x2="745.773" y2="572.554"/>
<line fill="none" stroke="#000000" stroke-miterlimit="10" x1="786.85" y1="572.554" x2="745.773" y2="572.554"/>
<line fill="none" stroke="#000000" stroke-miterlimit="10" x1="1149.745" y1="469.276" x2="894.667" y2="469.276"/>
<line fill="none" stroke="#000000" stroke-miterlimit="10" x1="872.695" y1="644.721" x2="800.528" y2="572.554"/>
<line fill="none" stroke="#000000" stroke-miterlimit="10" x1="786.85" y1="572.554" x2="800.528" y2="572.554"/>
<line fill="none" stroke="#000000" stroke-miterlimit="10" x1="1319.761" y1="331.333" x2="1208.217" y2="219.79"/>
<line fill="none" stroke="#000000" stroke-miterlimit="10" x1="1249.13" y1="402.667" x2="1249.13" y2="300.333"/>
<line fill="none" stroke="#000000" stroke-miterlimit="10" x1="1249.13" y1="300.333" x2="1208.217" y2="259.647"/>
<line fill="none" stroke="#000000" stroke-miterlimit="10" x1="1208.217" y1="219.79" x2="1208.217" y2="259.647"/>
<line fill="none" stroke="#000000" stroke-miterlimit="10" x1="1208.217" y1="219.79" x2="894.667" y2="219.79"/>
<line fill="none" stroke="#000000" stroke-miterlimit="10" x1="1208.217" y1="259.647" x2="1047.523" y2="259.647"/>
<line fill="none" stroke="#000000" stroke-miterlimit="10" x1="1047.523" y1="259.647" x2="894.667" y2="259.647"/>
<line fill="none" stroke="#000000" stroke-miterlimit="10" x1="1047.523" y1="259.647" x2="1047.523" y2="314"/>
<line fill="none" stroke="#000000" stroke-miterlimit="10" x1="1047.523" y1="314" x2="1149.135" y2="415.611"/>
<line fill="none" stroke="#000000" stroke-miterlimit="10" x1="1149.745" y1="469.276" x2="1149.135" y2="415.611"/>
<line fill="none" stroke="#000000" stroke-miterlimit="10" x1="894.667" y1="219.79" x2="894.667" y2="259.647"/>
<line fill="none" stroke="#000000" stroke-miterlimit="10" x1="894.667" y1="469.276" x2="894.667" y2="383.333"/>
<line fill="none" stroke="#000000" stroke-miterlimit="10" x1="894.667" y1="383.333" x2="839.667" y2="328.333"/>
<line fill="none" stroke="#000000" stroke-miterlimit="10" x1="839.667" y1="328.333" x2="839.667" y2="219.79"/>
<line fill="none" stroke="#000000" stroke-miterlimit="10" x1="839.667" y1="219.79" x2="894.667" y2="219.79"/>
<line fill="none" stroke="#000000" stroke-miterlimit="10" x1="871.194" y1="470.648" x2="871.194" y2="397.833"/>
<line fill="none" stroke="#000000" stroke-miterlimit="10" x1="871.194" y1="397.833" x2="803.514" y2="330.152"/>
<line fill="none" stroke="#000000" stroke-miterlimit="10" x1="803.514" y1="330.152" x2="803.514" y2="219.79"/>
<line fill="none" stroke="#000000" stroke-miterlimit="10" x1="745.773" y1="572.554" x2="605" y2="572.554"/>
<line fill="none" stroke="#000000" stroke-miterlimit="10" x1="605" y1="572.554" x2="662.452" y2="630.006"/>
<line fill="none" stroke="#000000" stroke-miterlimit="10" x1="662.452" y1="630.006" x2="706.267" y2="630.006"/>
<line fill="none" stroke="#000000" stroke-miterlimit="10" x1="706.267" y1="630.006" x2="706.267" y2="677.455"/>
<line fill="none" stroke="#000000" stroke-miterlimit="10" x1="632.435" y1="698.154" x2="605" y2="670.72"/>
<line fill="none" stroke="#000000" stroke-miterlimit="10" x1="605" y1="572.554" x2="605" y2="670.72"/>
<line fill="none" stroke="#000000" stroke-miterlimit="10" x1="629.284" y1="699.037" x2="601.233" y2="670.986"/>
<line fill="none" stroke="#000000" stroke-miterlimit="10" x1="1047.523" y1="314" x2="949.202" y2="314.183"/>
<line fill="none" stroke="#000000" stroke-miterlimit="10" x1="896.534" y1="261.514" x2="949.202" y2="314.183"/>
<line fill="none" stroke="#000000" stroke-miterlimit="10" x1="486.909" y1="742.835" x2="486.909" y2="670.72"/>
<line fill="none" stroke="#000000" stroke-miterlimit="10" x1="601.233" y1="670.986" x2="486.909" y2="670.986"/>
<line fill="none" stroke="#000000" stroke-miterlimit="10" x1="457.599" y1="756.068" x2="457.599" y2="739.136"/>
<line fill="none" stroke="#000000" stroke-miterlimit="10" x1="457.599" y1="739.136" x2="411.935" y2="739.136"/>
<line fill="none" stroke="#000000" stroke-miterlimit="10" x1="411.935" y1="739.136" x2="411.935" y2="760.615"/>
<line fill="none" stroke="#000000" stroke-miterlimit="10" x1="457.599" y1="739.136" x2="412.61" y2="694.146"/>
<line fill="none" stroke="#000000" stroke-miterlimit="10" x1="486.909" y1="670.72" x2="486.909" y2="543.753"/>
<line fill="none" stroke="#000000" stroke-miterlimit="10" x1="745.773" y1="572.554" x2="717.986" y2="544.767"/>
<line fill="none" stroke="#000000" stroke-miterlimit="10" x1="717.986" y1="544.767" x2="604.831" y2="544.767"/>
<line fill="none" stroke="#000000" stroke-miterlimit="10" x1="605" y1="572.554" x2="605" y2="544.767"/>
<line fill="none" stroke="#000000" stroke-miterlimit="10" x1="605" y1="544.767" x2="486.909" y2="544.767"/>
<line fill="none" stroke="#000000" stroke-miterlimit="10" x1="412.61" y1="694.146" x2="329.529" y2="694.146"/>
<line fill="none" stroke="#000000" stroke-miterlimit="10" x1="329.292" y1="787.02" x2="329.342" y2="694.146"/>
<line fill="none" stroke="#000000" stroke-miterlimit="10" x1="411.935" y1="739.136" x2="386.217" y2="713.418"/>
<line fill="none" stroke="#000000" stroke-miterlimit="10" x1="386.217" y1="713.418" x2="345.539" y2="713.418"/>
<line fill="none" stroke="#000000" stroke-miterlimit="10" x1="345.539" y1="713.418" x2="329.342" y2="694.146"/>
<line fill="none" stroke="#000000" stroke-miterlimit="10" x1="302.388" y1="804.599" x2="249.444" y2="751.655"/>
<line fill="none" stroke="#000000" stroke-miterlimit="10" x1="249.444" y1="751.655" x2="239.045" y2="751.655"/>
<line fill="none" stroke="#000000" stroke-miterlimit="10" x1="239.045" y1="751.655" x2="239.045" y2="694.146"/>
<line fill="none" stroke="#000000" stroke-miterlimit="10" x1="249.444" y1="751.655" x2="249.444" y2="694.146"/>
<line fill="none" stroke="#000000" stroke-miterlimit="10" x1="249.444" y1="694.146" x2="239.045" y2="694.146"/>
<line fill="none" stroke="#000000" stroke-miterlimit="10" x1="119.294" y1="786.004" x2="54.636" y2="786.004"/>
<line fill="none" stroke="#000000" stroke-miterlimit="10" x1="119.294" y1="786.004" x2="55.413" y2="722.123"/>
<line fill="none" stroke="#000000" stroke-miterlimit="10" x1="54.636" y1="786.004" x2="54.636" y2="722.123"/>
<line fill="none" stroke="#000000" stroke-miterlimit="10" x1="119.294" y1="786.004" x2="119.294" y2="618.982"/>
<line fill="none" stroke="#000000" stroke-miterlimit="10" x1="119.294" y1="618.982" x2="89.203" y2="588.892"/>
<line fill="none" stroke="#000000" stroke-miterlimit="10" x1="89.203" y1="588.892" x2="89.203" y2="461.095"/>
<line fill="none" stroke="#000000" stroke-miterlimit="10" x1="54.636" y1="722.123" x2="54.636" y2="461.095"/>
<line fill="none" stroke="#000000" stroke-miterlimit="10" x1="239.045" y1="694.146" x2="198.555" y2="653.656"/>
<line fill="none" stroke="#000000" stroke-miterlimit="10" x1="198.555" y1="653.656" x2="177.017" y2="632.118"/>
<line fill="none" stroke="#000000" stroke-miterlimit="10" x1="177.017" y1="632.118" x2="177.017" y2="513.011"/>
<line fill="none" stroke="#000000" stroke-miterlimit="10" x1="198.555" y1="653.656" x2="198.555" y2="513.011"/>
<line fill="none" stroke="#000000" stroke-miterlimit="10" x1="198.555" y1="513.011" x2="177.017" y2="513.011"/>
<line fill="none" stroke="#000000" stroke-miterlimit="10" x1="894.667" y1="219.79" x2="894.667" y2="119.111"/>
<line fill="none" stroke="#000000" stroke-miterlimit="10" x1="839.667" y1="219.79" x2="803.514" y2="184.25"/>
<path fill="none" stroke="#000000" stroke-miterlimit="10" d="M803.514,184.25"/>
<path fill="none" stroke="#000000" stroke-miterlimit="10" d="M803.514,219.79"/>
<line fill="none" stroke="#000000" stroke-miterlimit="10" x1="803.514" y1="184.25" x2="700.73" y2="184.52"/>
<line fill="none" stroke="#000000" stroke-miterlimit="10" x1="803.514" y1="219.79" x2="736" y2="219.79"/>
<path fill="none" stroke="#000000" stroke-miterlimit="10" d="M700.73,184.52"/>
<path fill="none" stroke="#000000" stroke-miterlimit="10" d="M736,219.79"/>
<line fill="none" stroke="#000000" stroke-miterlimit="10" x1="700.73" y1="184.52" x2="718.365" y2="202.154"/>
<line fill="none" stroke="#000000" stroke-miterlimit="10" x1="718.365" y1="202.154" x2="803.514" y2="202.154"/>
<line fill="none" stroke="#000000" stroke-miterlimit="10" x1="803.514" y1="202.154" x2="803.514" y2="184.25"/>
<line fill="none" stroke="#000000" stroke-miterlimit="10" x1="803.514" y1="202.154" x2="803.514" y2="219.79"/>
<line fill="none" stroke="#000000" stroke-miterlimit="10" x1="718.365" y1="202.154" x2="736" y2="219.789"/>
<line fill="none" stroke="#000000" stroke-miterlimit="10" x1="177.017" y1="513.011" x2="125.101" y2="461.095"/>
<line fill="none" stroke="#000000" stroke-miterlimit="10" x1="89.203" y1="461.095" x2="125.101" y2="461.095"/>
<line fill="none" stroke="#000000" stroke-miterlimit="10" x1="605" y1="544.767" x2="585.604" y2="525.371"/>
<line fill="none" stroke="#000000" stroke-miterlimit="10" x1="585.604" y1="525.371" x2="486.909" y2="525.371"/>
<line fill="none" stroke="#000000" stroke-miterlimit="10" x1="585.604" y1="525.371" x2="574.009" y2="513.776"/>
<line fill="none" stroke="#000000" stroke-miterlimit="10" x1="574.009" y1="513.776" x2="486.909" y2="513.776"/>
<line fill="none" stroke="#000000" stroke-miterlimit="10" x1="486.909" y1="544.767" x2="486.909" y2="525.371"/>
<line fill="none" stroke="#000000" stroke-miterlimit="10" x1="486.909" y1="513.776" x2="486.909" y2="525.371"/>
<line fill="none" stroke="#000000" stroke-miterlimit="10" x1="800.528" y1="572.554" x2="800.528" y2="475.215"/>
<line fill="none" stroke="#000000" stroke-miterlimit="10" x1="786.85" y1="572.554" x2="786.85" y2="475.215"/>
<line fill="none" stroke="#000000" stroke-miterlimit="10" x1="717.986" y1="544.767" x2="717.986" y2="475.215"/>
<line fill="none" stroke="#000000" stroke-miterlimit="10" x1="800.528" y1="475.215" x2="786.85" y2="475.215"/>
<line fill="none" stroke="#000000" stroke-miterlimit="10" x1="786.85" y1="475.215" x2="717.986" y2="475.215"/>
<line fill="none" stroke="#000000" stroke-miterlimit="10" x1="949.202" y1="314.183" x2="894.667" y2="383.333"/>
<line fill="none" stroke="#000000" stroke-miterlimit="10" x1="486.909" y1="544.767" x2="354.876" y2="412.734"/>
<line fill="none" stroke="#000000" stroke-miterlimit="10" x1="486.909" y1="525.371" x2="364.436" y2="402.898"/>
<line fill="none" stroke="#000000" stroke-miterlimit="10" x1="354.876" y1="412.734" x2="364.574" y2="403.037"/>
<line fill="none" stroke="#000000" stroke-miterlimit="10" x1="364.574" y1="403.037" x2="370.372" y2="397.239"/>
<line fill="none" stroke="#000000" stroke-miterlimit="10" x1="486.909" y1="513.776" x2="370.372" y2="397.239"/>
<line fill="none" stroke="#000000" stroke-miterlimit="10" x1="329.342" y1="694.146" x2="329.342" y2="648.1"/>
<line fill="none" stroke="#000000" stroke-miterlimit="10" x1="329.342" y1="648.1" x2="198.555" y2="513.011"/>
<line fill="none" stroke="#000000" stroke-miterlimit="10" x1="198.555" y1="513.011" x2="198.555" y2="412.734"/>
<line fill="none" stroke="#000000" stroke-miterlimit="10" x1="198.555" y1="412.734" x2="354.876" y2="412.734"/>
<line fill="none" stroke="#000000" stroke-miterlimit="10" x1="54.636" y1="461.095" x2="18.771" y2="425.229"/>
<line fill="none" stroke="#000000" stroke-miterlimit="10" x1="89.203" y1="461.095" x2="22.059" y2="393.951"/>
<line fill="none" stroke="#000000" stroke-miterlimit="10" x1="198.555" y1="412.734" x2="125.101" y2="412.734"/>
<line fill="none" stroke="#000000" stroke-miterlimit="10" x1="125.101" y1="412.734" x2="125.101" y2="316.87"/>
<line fill="none" stroke="#000000" stroke-miterlimit="10" x1="89.203" y1="461.095" x2="125.101" y2="412.734"/>
<line fill="none" stroke="#000000" stroke-miterlimit="10" x1="717.986" y1="475.215" x2="642" y2="397.833"/>
<line fill="none" stroke="#000000" stroke-miterlimit="10" x1="642" y1="397.833" x2="370.372" y2="397.239"/>
<line fill="none" stroke="#000000" stroke-miterlimit="10" x1="329.342" y1="648.1" x2="329.529" y2="443.162"/>
<line fill="none" stroke="#000000" stroke-miterlimit="10" x1="329.529" y1="443.162" x2="354.876" y2="412.734"/>
<line fill="none" stroke="#000000" stroke-miterlimit="10" x1="786.85" y1="475.215" x2="718.365" y2="406.75"/>
<line fill="none" stroke="#000000" stroke-miterlimit="10" x1="736" y1="219.79" x2="736" y2="407.886"/>
<line fill="none" stroke="#000000" stroke-miterlimit="10" x1="736" y1="407.886" x2="800.528" y2="475.215"/>
<line fill="none" stroke="#000000" stroke-miterlimit="10" x1="364.436" y1="402.898" x2="364.436" y2="363.992"/>
<line fill="none" stroke="#000000" stroke-miterlimit="10" x1="364.436" y1="363.992" x2="317.313" y2="316.87"/>
<line fill="none" stroke="#000000" stroke-miterlimit="10" x1="317.313" y1="316.87" x2="125.101" y2="316.87"/>
<line fill="none" stroke="#000000" stroke-miterlimit="10" x1="370.372" y1="397.239" x2="370.372" y2="363.992"/>
<line fill="none" stroke="#000000" stroke-miterlimit="10" x1="370.372" y1="363.992" x2="317.856" y2="311.477"/>
<line fill="none" stroke="#000000" stroke-miterlimit="10" x1="317.856" y1="311.477" x2="317.313" y2="202.154"/>
<line fill="none" stroke="#000000" stroke-miterlimit="10" x1="574.009" y1="513.776" x2="574.009" y2="495.333"/>
<line fill="none" stroke="#000000" stroke-miterlimit="10" x1="574.009" y1="495.333" x2="486.909" y2="495.333"/>
<line fill="none" stroke="#000000" stroke-miterlimit="10" x1="486.909" y1="495.333" x2="486.909" y2="513.776"/>
<line fill="none" stroke="#000000" stroke-miterlimit="10" x1="718.365" y1="201.019" x2="718.365" y2="406.75"/>
<line fill="none" stroke="#000000" stroke-miterlimit="10" x1="718.365" y1="202.154" x2="317.313" y2="202.154"/>
<line fill="none" stroke="#000000" stroke-miterlimit="10" x1="317.313" y1="202.154" x2="426.154" y2="310.995"/>
<line fill="none" stroke="#000000" stroke-miterlimit="10" x1="426.154" y1="310.995" x2="642" y2="310.995"/>
<line fill="none" stroke="#000000" stroke-miterlimit="10" x1="642" y1="310.995" x2="642" y2="397.833"/>
<line fill="none" stroke="#000000" stroke-miterlimit="10" x1="718.365" y1="202.154" x2="642" y2="278.5"/>
<line fill="none" stroke="#000000" stroke-miterlimit="10" x1="642" y1="278.5" x2="642" y2="310.995"/>
<line fill="none" stroke="#000000" stroke-miterlimit="10" x1="128" y1="311.477" x2="71.253" y2="254.5"/>
<line fill="none" stroke="#000000" stroke-miterlimit="10" x1="125.101" y1="316.87" x2="71.253" y2="263.022"/>
<line fill="none" stroke="#000000" stroke-miterlimit="10" x1="71.253" y1="263.022" x2="71.253" y2="254.5"/>
<line fill="none" stroke="#000000" stroke-miterlimit="10" x1="247" y1="311.477" x2="247" y2="263.022"/>
<line fill="none" stroke="#000000" stroke-miterlimit="10" x1="235.75" y1="311.477" x2="235.75" y2="263.022"/>
<line fill="none" stroke="#000000" stroke-miterlimit="10" x1="128" y1="311.477" x2="235.75" y2="311.477"/>
<line fill="none" stroke="#000000" stroke-miterlimit="10" x1="247" y1="311.477" x2="235.75" y2="311.477"/>
<line fill="none" stroke="#000000" stroke-miterlimit="10" x1="247" y1="311.477" x2="317.856" y2="311.477"/>
<line fill="none" stroke="#000000" stroke-miterlimit="10" x1="317.313" y1="202.154" x2="317.313" y2="126.951"/>
<line fill="none" stroke="#000000" stroke-miterlimit="10" x1="317.313" y1="202.154" x2="283.519" y2="168.36"/>
<line fill="none" stroke="#000000" stroke-miterlimit="10" x1="247" y1="263.022" x2="208.569" y2="224.592"/>
<line fill="none" stroke="#000000" stroke-miterlimit="10" x1="235.75" y1="263.022" x2="171.288" y2="263.022"/>
<line fill="none" stroke="#000000" stroke-miterlimit="10" x1="700.73" y1="184.52" x2="700.73" y2="98.113"/>
<line fill="none" stroke="#000000" stroke-miterlimit="10" x1="700.73" y1="184.52" x2="544.071" y2="184.52"/>
<line fill="none" stroke="#000000" stroke-miterlimit="10" x1="544.071" y1="184.52" x2="481.656" y2="122.104"/>
<line fill="none" stroke="#000000" stroke-miterlimit="10" x1="544.071" y1="184.52" x2="520.667" y2="184.52"/>
<line fill="none" stroke="#000000" stroke-miterlimit="10" x1="520.667" y1="184.52" x2="460.126" y2="123.979"/>
<line fill="none" stroke="#000000" stroke-miterlimit="10" x1="574.009" y1="495.333" x2="504.966" y2="426.29"/>
<line fill="none" stroke="#000000" stroke-miterlimit="10" x1="412.61" y1="694.146" x2="412.61" y2="566.242"/>
<line fill="none" stroke="#000000" stroke-miterlimit="10" x1="605" y1="670.72" x2="528.804" y2="594.5"/>
<line fill="none" stroke="#000000" stroke-miterlimit="10" x1="486.909" y1="544.767" x2="528.804" y2="586.661"/>
<line fill="none" stroke="#000000" stroke-miterlimit="10" x1="528.804" y1="586.661" x2="528.804" y2="594.5"/>
<line fill="none" stroke="#000000" stroke-miterlimit="10" x1="894.667" y1="383.333" x2="926.972" y2="415.639"/>
<line fill="none" stroke="#000000" stroke-miterlimit="10" x1="926.972" y1="415.639" x2="1149.135" y2="415.639"/>
<line fill="none" stroke="#000000" stroke-miterlimit="10" x1="1208.217" y1="219.79" x2="1185.742" y2="201.019"/>
<line fill="none" stroke="#000000" stroke-miterlimit="10" x1="1185.742" y1="201.019" x2="1060.308" y2="201.019"/>
<line fill="none" stroke="#000000" stroke-miterlimit="10" x1="1060.308" y1="201.019" x2="980.082" y2="120.793"/>
<line fill="none" stroke="#000000" stroke-miterlimit="10" x1="1185.742" y1="201.019" x2="1185.742" y2="119.111"/>
<line fill="none" stroke="#000000" stroke-miterlimit="10" x1="1336" y1="331.333" x2="1292.178" y2="287.511"/>
<line fill="none" stroke="#000000" stroke-miterlimit="10" x1="949.202" y1="314.183" x2="863" y2="314.183"/>
<line fill="none" stroke="#000000" stroke-miterlimit="10" x1="1149.135" y1="415.639" x2="1149.439" y2="361"/>
<line fill="none" stroke="#000000" stroke-miterlimit="10" x1="642" y1="397.833" x2="613.438" y2="369.271"/>
<line fill="none" stroke="#000000" stroke-miterlimit="10" x1="613.438" y1="369.271" x2="613.438" y2="318.667"/>
<line fill="none" stroke="#000000" stroke-miterlimit="10" x1="613.438" y1="318.667" x2="433.829" y2="318.671"/>
<line fill="none" stroke="#000000" stroke-miterlimit="10" x1="426.154" y1="310.995" x2="433.829" y2="318.671"/>
<line fill="none" stroke="#000000" stroke-miterlimit="10" x1="894.667" y1="469.276" x2="884.445" y2="459.055"/>
<line fill="none" stroke="#000000" stroke-miterlimit="10" x1="884.445" y1="459.055" x2="884.445" y2="390.769"/>
<line fill="none" stroke="#000000" stroke-miterlimit="10" x1="1047.523" y1="259.647" x2="1149.439" y2="361"/>
<line fill="none" stroke="#000000" stroke-miterlimit="10" x1="460.126" y1="123.979" x2="460.126" y2="74"/>
<line fill="none" stroke="#000000" stroke-miterlimit="10" x1="642" y1="310.995" x2="566.997" y2="235.992"/>
<line fill="none" stroke="#000000" stroke-miterlimit="10" x1="566.997" y1="235.992" x2="445.976" y2="235.992"/>
<line fill="none" stroke="#000000" stroke-miterlimit="10" x1="354.876" y1="412.734" x2="305.233" y2="363.091"/>
<line fill="none" stroke="#000000" stroke-miterlimit="10" x1="305.233" y1="363.091" x2="171" y2="363.091"/>
<line fill="none" stroke="#000000" stroke-miterlimit="10" x1="125.101" y1="316.87" x2="171" y2="363.091"/>
<line fill="none" stroke="#000000" stroke-miterlimit="10" x1="717.986" y1="475.215" x2="700.73" y2="475.215"/>
<line fill="none" stroke="#000000" stroke-miterlimit="10" x1="700.73" y1="475.215" x2="641.041" y2="415.525"/>
<line fill="none" stroke="#000000" stroke-miterlimit="10" x1="1452.117" y1="566.941" x2="1463.874" y2="578.698"/>
<line fill="none" stroke="#000000" stroke-miterlimit="10" x1="1463.874" y1="578.698" x2="1463.874" y2="620.667"/>
<line fill="none" stroke="#000000" stroke-miterlimit="10" x1="1445.84" y1="602.373" x2="1463.874" y2="620.667"/>
<line fill="none" stroke="#000000" stroke-miterlimit="10" x1="1463.874" y1="620.667" x2="1582.1" y2="738.5"/>
<line fill="none" stroke="#000000" stroke-miterlimit="10" x1="1314.05" y1="867.291" x2="1329.562" y2="851.737"/>
<line fill="none" stroke="#000000" stroke-miterlimit="10" x1="1329.562" y1="851.737" x2="1354.53" y2="851.737"/>
<line fill="none" stroke="#000000" stroke-miterlimit="10" x1="1023.895" y1="972.473" x2="1035.641" y2="960.727"/>
<line fill="none" stroke="#000000" stroke-miterlimit="10" x1="1035.641" y1="960.727" x2="1067.186" y2="960.727"/>
<line fill="none" stroke="#000000" stroke-miterlimit="10" x1="1201.896" y1="815.452" x2="1156.346" y2="867.333"/>
<line fill="none" stroke="#FA110D" stroke-miterlimit="10" x1="740.475" y1="799.481" x2="748.727" y2="807.733"/>
<line fill="none" stroke="#FA110D" stroke-miterlimit="10" x1="748.727" y1="807.733" x2="774.465" y2="807.71"/>
</svg>
