<?xml version="1.0" encoding="utf-8"?>
<!-- Generator: Adobe Illustrator 22.0.1, SVG Export Plug-In . SVG Version: 6.00 Build 0)  -->
<svg version="1.1" id="Layer_1" xmlns="http://www.w3.org/2000/svg" xmlns:xlink="http://www.w3.org/1999/xlink" x="0px" y="0px"
	 viewBox="0 0 400 400" style="enable-background:new 0 0 400 400;" xml:space="preserve">
<style type="text/css">
	.st0{fill:#FFFFFF;stroke:#000000;stroke-miterlimit:10;}
</style>
<line class="st0" x1="28.3" y1="56.7" x2="56.7" y2="28.3"/>
<line class="st0" x1="85" y1="56.7" x2="56.7" y2="28.3"/>
<line class="st0" x1="56.7" y1="85" x2="28.3" y2="56.7"/>
<line class="st0" x1="56.7" y1="85" x2="85" y2="56.7"/>
<line class="st0" x1="85" y1="28.3" x2="56.7" y2="28.3"/>
<line class="st0" x1="56.7" y1="28.3" x2="28.3" y2="28.3"/>
<line class="st0" x1="28.3" y1="113.4" x2="56.7" y2="85"/>
<line class="st0" x1="85" y1="113.4" x2="56.7" y2="85"/>
<line class="st0" x1="56.7" y1="141.7" x2="28.3" y2="113.4"/>
<line class="st0" x1="56.7" y1="141.7" x2="85" y2="113.4"/>
<line class="st0" x1="85" y1="85" x2="56.7" y2="85"/>
<line class="st0" x1="56.7" y1="85" x2="28.3" y2="85"/>
<line class="st0" x1="85" y1="56.7" x2="56.7" y2="56.7"/>
<line class="st0" x1="56.7" y1="56.7" x2="28.3" y2="56.7"/>
<line class="st0" x1="85" y1="113.4" x2="56.7" y2="113.4"/>
<line class="st0" x1="56.7" y1="113.4" x2="28.3" y2="113.4"/>
<line class="st0" x1="85" y1="56.7" x2="113.4" y2="28.3"/>
<line class="st0" x1="141.7" y1="56.7" x2="113.4" y2="28.3"/>
<line class="st0" x1="113.4" y1="85" x2="85" y2="56.7"/>
<line class="st0" x1="113.4" y1="85" x2="141.7" y2="56.7"/>
<line class="st0" x1="141.7" y1="28.3" x2="113.4" y2="28.3"/>
<line class="st0" x1="113.4" y1="28.3" x2="85" y2="28.3"/>
<line class="st0" x1="85" y1="113.4" x2="113.4" y2="85"/>
<line class="st0" x1="141.7" y1="113.4" x2="113.4" y2="85"/>
<line class="st0" x1="113.4" y1="141.7" x2="85" y2="113.4"/>
<line class="st0" x1="113.4" y1="141.7" x2="141.7" y2="113.4"/>
<line class="st0" x1="141.7" y1="85" x2="113.4" y2="85"/>
<line class="st0" x1="113.4" y1="85" x2="85" y2="85"/>
<line class="st0" x1="141.7" y1="56.7" x2="113.4" y2="56.7"/>
<line class="st0" x1="113.4" y1="56.7" x2="85" y2="56.7"/>
<line class="st0" x1="141.7" y1="113.4" x2="113.4" y2="113.4"/>
<line class="st0" x1="113.4" y1="113.4" x2="85" y2="113.4"/>
<line class="st0" x1="141.7" y1="56.7" x2="170.1" y2="28.3"/>
<line class="st0" x1="198.4" y1="56.7" x2="170.1" y2="28.3"/>
<line class="st0" x1="170.1" y1="85" x2="141.7" y2="56.7"/>
<line class="st0" x1="170.1" y1="85" x2="198.4" y2="56.7"/>
<line class="st0" x1="198.4" y1="28.3" x2="170.1" y2="28.3"/>
<line class="st0" x1="170.1" y1="28.3" x2="141.7" y2="28.3"/>
<line class="st0" x1="141.7" y1="113.4" x2="170.1" y2="85"/>
<line class="st0" x1="198.4" y1="113.4" x2="170.1" y2="85"/>
<line class="st0" x1="170.1" y1="141.7" x2="141.7" y2="113.4"/>
<line class="st0" x1="170.1" y1="141.7" x2="198.4" y2="113.4"/>
<line class="st0" x1="198.4" y1="85" x2="170.1" y2="85"/>
<line class="st0" x1="170.1" y1="85" x2="141.7" y2="85"/>
<line class="st0" x1="198.4" y1="56.7" x2="170.1" y2="56.7"/>
<line class="st0" x1="170.1" y1="56.7" x2="141.7" y2="56.7"/>
<line class="st0" x1="198.4" y1="113.4" x2="170.1" y2="113.4"/>
<line class="st0" x1="170.1" y1="113.4" x2="141.7" y2="113.4"/>
<line class="st0" x1="198.4" y1="56.7" x2="226.8" y2="28.3"/>
<line class="st0" x1="255.1" y1="56.7" x2="226.8" y2="28.3"/>
<line class="st0" x1="226.8" y1="85" x2="198.4" y2="56.7"/>
<line class="st0" x1="226.8" y1="85" x2="255.1" y2="56.7"/>
<line class="st0" x1="255.1" y1="28.3" x2="226.8" y2="28.3"/>
<line class="st0" x1="226.8" y1="28.3" x2="198.4" y2="28.3"/>
<line class="st0" x1="198.4" y1="113.4" x2="226.8" y2="85"/>
<line class="st0" x1="255.1" y1="113.4" x2="226.8" y2="85"/>
<line class="st0" x1="226.8" y1="141.7" x2="198.4" y2="113.4"/>
<line class="st0" x1="226.8" y1="141.7" x2="255.1" y2="113.4"/>
<line class="st0" x1="255.1" y1="85" x2="226.8" y2="85"/>
<line class="st0" x1="226.8" y1="85" x2="198.4" y2="85"/>
<line class="st0" x1="255.1" y1="56.7" x2="226.8" y2="56.7"/>
<line class="st0" x1="226.8" y1="56.7" x2="198.4" y2="56.7"/>
<line class="st0" x1="255.1" y1="113.4" x2="226.8" y2="113.4"/>
<line class="st0" x1="226.8" y1="113.4" x2="198.4" y2="113.4"/>
<line class="st0" x1="255.1" y1="56.7" x2="283.5" y2="28.3"/>
<line class="st0" x1="311.8" y1="56.7" x2="283.5" y2="28.3"/>
<line class="st0" x1="283.5" y1="85" x2="255.1" y2="56.7"/>
<line class="st0" x1="283.5" y1="85" x2="311.8" y2="56.7"/>
<line class="st0" x1="311.8" y1="28.3" x2="283.5" y2="28.3"/>
<line class="st0" x1="283.5" y1="28.3" x2="255.1" y2="28.3"/>
<line class="st0" x1="255.1" y1="113.4" x2="283.5" y2="85"/>
<line class="st0" x1="311.8" y1="113.4" x2="283.5" y2="85"/>
<line class="st0" x1="283.5" y1="141.7" x2="255.1" y2="113.4"/>
<line class="st0" x1="283.5" y1="141.7" x2="311.8" y2="113.4"/>
<line class="st0" x1="311.8" y1="85" x2="283.5" y2="85"/>
<line class="st0" x1="283.5" y1="85" x2="255.1" y2="85"/>
<line class="st0" x1="311.8" y1="56.7" x2="283.5" y2="56.7"/>
<line class="st0" x1="283.5" y1="56.7" x2="255.1" y2="56.7"/>
<line class="st0" x1="311.8" y1="113.4" x2="283.5" y2="113.4"/>
<line class="st0" x1="283.5" y1="113.4" x2="255.1" y2="113.4"/>
<line class="st0" x1="311.8" y1="56.7" x2="340.2" y2="28.3"/>
<line class="st0" x1="368.5" y1="56.7" x2="340.2" y2="28.3"/>
<line class="st0" x1="340.2" y1="85" x2="311.8" y2="56.7"/>
<line class="st0" x1="340.2" y1="85" x2="368.5" y2="56.7"/>
<line class="st0" x1="368.5" y1="28.3" x2="340.2" y2="28.3"/>
<line class="st0" x1="340.2" y1="28.3" x2="311.8" y2="28.3"/>
<line class="st0" x1="311.8" y1="113.4" x2="340.2" y2="85"/>
<line class="st0" x1="368.5" y1="113.4" x2="340.2" y2="85"/>
<line class="st0" x1="340.2" y1="141.7" x2="311.8" y2="113.4"/>
<line class="st0" x1="340.2" y1="141.7" x2="368.5" y2="113.4"/>
<line class="st0" x1="368.5" y1="85" x2="340.2" y2="85"/>
<line class="st0" x1="340.2" y1="85" x2="311.8" y2="85"/>
<line class="st0" x1="368.5" y1="56.7" x2="340.2" y2="56.7"/>
<line class="st0" x1="340.2" y1="56.7" x2="311.8" y2="56.7"/>
<line class="st0" x1="368.5" y1="113.4" x2="340.2" y2="113.4"/>
<line class="st0" x1="340.2" y1="113.4" x2="311.8" y2="113.4"/>
<line class="st0" x1="28.3" y1="170.1" x2="56.7" y2="141.7"/>
<line class="st0" x1="85" y1="170.1" x2="56.7" y2="141.7"/>
<line class="st0" x1="56.7" y1="198.4" x2="28.3" y2="170.1"/>
<line class="st0" x1="56.7" y1="198.4" x2="85" y2="170.1"/>
<line class="st0" x1="85" y1="141.7" x2="56.7" y2="141.7"/>
<line class="st0" x1="56.7" y1="141.7" x2="28.3" y2="141.7"/>
<line class="st0" x1="28.3" y1="226.8" x2="56.7" y2="198.4"/>
<line class="st0" x1="85" y1="226.8" x2="56.7" y2="198.4"/>
<line class="st0" x1="56.7" y1="255.1" x2="28.3" y2="226.8"/>
<line class="st0" x1="56.7" y1="255.1" x2="85" y2="226.8"/>
<line class="st0" x1="85" y1="198.4" x2="56.7" y2="198.4"/>
<line class="st0" x1="56.7" y1="198.4" x2="28.3" y2="198.4"/>
<line class="st0" x1="85" y1="170.1" x2="56.7" y2="170.1"/>
<line class="st0" x1="56.7" y1="170.1" x2="28.3" y2="170.1"/>
<line class="st0" x1="85" y1="226.8" x2="56.7" y2="226.8"/>
<line class="st0" x1="56.7" y1="226.8" x2="28.3" y2="226.8"/>
<line class="st0" x1="85" y1="170.1" x2="113.4" y2="141.7"/>
<line class="st0" x1="141.7" y1="170.1" x2="113.4" y2="141.7"/>
<line class="st0" x1="113.4" y1="198.4" x2="85" y2="170.1"/>
<line class="st0" x1="113.4" y1="198.4" x2="141.7" y2="170.1"/>
<line class="st0" x1="141.7" y1="141.7" x2="113.4" y2="141.7"/>
<line class="st0" x1="113.4" y1="141.7" x2="85" y2="141.7"/>
<line class="st0" x1="85" y1="226.8" x2="113.4" y2="198.4"/>
<line class="st0" x1="141.7" y1="226.8" x2="113.4" y2="198.4"/>
<line class="st0" x1="113.4" y1="255.1" x2="85" y2="226.8"/>
<line class="st0" x1="113.4" y1="255.1" x2="141.7" y2="226.8"/>
<line class="st0" x1="141.7" y1="198.4" x2="113.4" y2="198.4"/>
<line class="st0" x1="113.4" y1="198.4" x2="85" y2="198.4"/>
<line class="st0" x1="141.7" y1="170.1" x2="113.4" y2="170.1"/>
<line class="st0" x1="113.4" y1="170.1" x2="85" y2="170.1"/>
<line class="st0" x1="141.7" y1="226.8" x2="113.4" y2="226.8"/>
<line class="st0" x1="113.4" y1="226.8" x2="85" y2="226.8"/>
<line class="st0" x1="141.7" y1="170.1" x2="170.1" y2="141.7"/>
<line class="st0" x1="198.4" y1="170.1" x2="170.1" y2="141.7"/>
<line class="st0" x1="170.1" y1="198.4" x2="141.7" y2="170.1"/>
<line class="st0" x1="170.1" y1="198.4" x2="198.4" y2="170.1"/>
<line class="st0" x1="198.4" y1="141.7" x2="170.1" y2="141.7"/>
<line class="st0" x1="170.1" y1="141.7" x2="141.7" y2="141.7"/>
<line class="st0" x1="141.7" y1="226.8" x2="170.1" y2="198.4"/>
<line class="st0" x1="198.4" y1="226.8" x2="170.1" y2="198.4"/>
<line class="st0" x1="170.1" y1="255.1" x2="141.7" y2="226.8"/>
<line class="st0" x1="170.1" y1="255.1" x2="198.4" y2="226.8"/>
<line class="st0" x1="198.4" y1="198.4" x2="170.1" y2="198.4"/>
<line class="st0" x1="170.1" y1="198.4" x2="141.7" y2="198.4"/>
<line class="st0" x1="198.4" y1="170.1" x2="170.1" y2="170.1"/>
<line class="st0" x1="170.1" y1="170.1" x2="141.7" y2="170.1"/>
<line class="st0" x1="198.4" y1="226.8" x2="170.1" y2="226.8"/>
<line class="st0" x1="170.1" y1="226.8" x2="141.7" y2="226.8"/>
<line class="st0" x1="198.4" y1="170.1" x2="226.8" y2="141.7"/>
<line class="st0" x1="255.1" y1="170.1" x2="226.8" y2="141.7"/>
<line class="st0" x1="226.8" y1="198.4" x2="198.4" y2="170.1"/>
<line class="st0" x1="226.8" y1="198.4" x2="255.1" y2="170.1"/>
<line class="st0" x1="255.1" y1="141.7" x2="226.8" y2="141.7"/>
<line class="st0" x1="226.8" y1="141.7" x2="198.4" y2="141.7"/>
<line class="st0" x1="198.4" y1="226.8" x2="226.8" y2="198.4"/>
<line class="st0" x1="255.1" y1="226.8" x2="226.8" y2="198.4"/>
<line class="st0" x1="226.8" y1="255.1" x2="198.4" y2="226.8"/>
<line class="st0" x1="226.8" y1="255.1" x2="255.1" y2="226.8"/>
<line class="st0" x1="255.1" y1="198.4" x2="226.8" y2="198.4"/>
<line class="st0" x1="226.8" y1="198.4" x2="198.4" y2="198.4"/>
<line class="st0" x1="255.1" y1="170.1" x2="226.8" y2="170.1"/>
<line class="st0" x1="226.8" y1="170.1" x2="198.4" y2="170.1"/>
<line class="st0" x1="255.1" y1="226.8" x2="226.8" y2="226.8"/>
<line class="st0" x1="226.8" y1="226.8" x2="198.4" y2="226.8"/>
<line class="st0" x1="255.1" y1="170.1" x2="283.5" y2="141.7"/>
<line class="st0" x1="311.8" y1="170.1" x2="283.5" y2="141.7"/>
<line class="st0" x1="283.5" y1="198.4" x2="255.1" y2="170.1"/>
<line class="st0" x1="283.5" y1="198.4" x2="311.8" y2="170.1"/>
<line class="st0" x1="311.8" y1="141.7" x2="283.5" y2="141.7"/>
<line class="st0" x1="283.5" y1="141.7" x2="255.1" y2="141.7"/>
<line class="st0" x1="255.1" y1="226.8" x2="283.5" y2="198.4"/>
<line class="st0" x1="311.8" y1="226.8" x2="283.5" y2="198.4"/>
<line class="st0" x1="283.5" y1="255.1" x2="255.1" y2="226.8"/>
<line class="st0" x1="283.5" y1="255.1" x2="311.8" y2="226.8"/>
<line class="st0" x1="311.8" y1="198.4" x2="283.5" y2="198.4"/>
<line class="st0" x1="283.5" y1="198.4" x2="255.1" y2="198.4"/>
<line class="st0" x1="311.8" y1="170.1" x2="283.5" y2="170.1"/>
<line class="st0" x1="283.5" y1="170.1" x2="255.1" y2="170.1"/>
<line class="st0" x1="311.8" y1="226.8" x2="283.5" y2="226.8"/>
<line class="st0" x1="283.5" y1="226.8" x2="255.1" y2="226.8"/>
<line class="st0" x1="311.8" y1="170.1" x2="340.2" y2="141.7"/>
<line class="st0" x1="368.5" y1="170.1" x2="340.2" y2="141.7"/>
<line class="st0" x1="340.2" y1="198.4" x2="311.8" y2="170.1"/>
<line class="st0" x1="340.2" y1="198.4" x2="368.5" y2="170.1"/>
<line class="st0" x1="368.5" y1="141.7" x2="340.2" y2="141.7"/>
<line class="st0" x1="340.2" y1="141.7" x2="311.8" y2="141.7"/>
<line class="st0" x1="311.8" y1="226.8" x2="340.2" y2="198.4"/>
<line class="st0" x1="368.5" y1="226.8" x2="340.2" y2="198.4"/>
<line class="st0" x1="340.2" y1="255.1" x2="311.8" y2="226.8"/>
<line class="st0" x1="340.2" y1="255.1" x2="368.5" y2="226.8"/>
<line class="st0" x1="368.5" y1="198.4" x2="340.2" y2="198.4"/>
<line class="st0" x1="340.2" y1="198.4" x2="311.8" y2="198.4"/>
<line class="st0" x1="368.5" y1="170.1" x2="340.2" y2="170.1"/>
<line class="st0" x1="340.2" y1="170.1" x2="311.8" y2="170.1"/>
<line class="st0" x1="368.5" y1="226.8" x2="340.2" y2="226.8"/>
<line class="st0" x1="340.2" y1="226.8" x2="311.8" y2="226.8"/>
<line class="st0" x1="28.3" y1="283.5" x2="56.7" y2="255.1"/>
<line class="st0" x1="85" y1="283.5" x2="56.7" y2="255.1"/>
<line class="st0" x1="56.7" y1="311.8" x2="28.3" y2="283.5"/>
<line class="st0" x1="56.7" y1="311.8" x2="85" y2="283.5"/>
<line class="st0" x1="85" y1="255.1" x2="56.7" y2="255.1"/>
<line class="st0" x1="56.7" y1="255.1" x2="28.3" y2="255.1"/>
<line class="st0" x1="28.3" y1="340.2" x2="56.7" y2="311.8"/>
<line class="st0" x1="85" y1="340.2" x2="56.7" y2="311.8"/>
<line class="st0" x1="56.7" y1="368.5" x2="28.3" y2="340.2"/>
<line class="st0" x1="56.7" y1="368.5" x2="85" y2="340.2"/>
<line class="st0" x1="85" y1="311.8" x2="56.7" y2="311.8"/>
<line class="st0" x1="56.7" y1="311.8" x2="28.3" y2="311.8"/>
<line class="st0" x1="85" y1="283.5" x2="56.7" y2="283.5"/>
<line class="st0" x1="56.7" y1="283.5" x2="28.3" y2="283.5"/>
<line class="st0" x1="85" y1="340.2" x2="56.7" y2="340.2"/>
<line class="st0" x1="56.7" y1="340.2" x2="28.3" y2="340.2"/>
<line class="st0" x1="85" y1="283.5" x2="113.4" y2="255.1"/>
<line class="st0" x1="141.7" y1="283.5" x2="113.4" y2="255.1"/>
<line class="st0" x1="113.4" y1="311.8" x2="85" y2="283.5"/>
<line class="st0" x1="113.4" y1="311.8" x2="141.7" y2="283.5"/>
<line class="st0" x1="141.7" y1="255.1" x2="113.4" y2="255.1"/>
<line class="st0" x1="113.4" y1="255.1" x2="85" y2="255.1"/>
<line class="st0" x1="85" y1="340.2" x2="113.4" y2="311.8"/>
<line class="st0" x1="141.7" y1="340.2" x2="113.4" y2="311.8"/>
<line class="st0" x1="113.4" y1="368.5" x2="85" y2="340.2"/>
<line class="st0" x1="113.4" y1="368.5" x2="141.7" y2="340.2"/>
<line class="st0" x1="141.7" y1="311.8" x2="113.4" y2="311.8"/>
<line class="st0" x1="113.4" y1="311.8" x2="85" y2="311.8"/>
<line class="st0" x1="141.7" y1="283.5" x2="113.4" y2="283.5"/>
<line class="st0" x1="113.4" y1="283.5" x2="85" y2="283.5"/>
<line class="st0" x1="141.7" y1="340.2" x2="113.4" y2="340.2"/>
<line class="st0" x1="113.4" y1="340.2" x2="85" y2="340.2"/>
<line class="st0" x1="141.7" y1="283.5" x2="170.1" y2="255.1"/>
<line class="st0" x1="198.4" y1="283.5" x2="170.1" y2="255.1"/>
<line class="st0" x1="170.1" y1="311.8" x2="141.7" y2="283.5"/>
<line class="st0" x1="170.1" y1="311.8" x2="198.4" y2="283.5"/>
<line class="st0" x1="198.4" y1="255.1" x2="170.1" y2="255.1"/>
<line class="st0" x1="170.1" y1="255.1" x2="141.7" y2="255.1"/>
<line class="st0" x1="141.7" y1="340.2" x2="170.1" y2="311.8"/>
<line class="st0" x1="198.4" y1="340.2" x2="170.1" y2="311.8"/>
<line class="st0" x1="170.1" y1="368.5" x2="141.7" y2="340.2"/>
<line class="st0" x1="170.1" y1="368.5" x2="198.4" y2="340.2"/>
<line class="st0" x1="198.4" y1="311.8" x2="170.1" y2="311.8"/>
<line class="st0" x1="170.1" y1="311.8" x2="141.7" y2="311.8"/>
<line class="st0" x1="198.4" y1="283.5" x2="170.1" y2="283.5"/>
<line class="st0" x1="170.1" y1="283.5" x2="141.7" y2="283.5"/>
<line class="st0" x1="198.4" y1="340.2" x2="170.1" y2="340.2"/>
<line class="st0" x1="170.1" y1="340.2" x2="141.7" y2="340.2"/>
<line class="st0" x1="198.4" y1="283.5" x2="226.8" y2="255.1"/>
<line class="st0" x1="255.1" y1="283.5" x2="226.8" y2="255.1"/>
<line class="st0" x1="226.8" y1="311.8" x2="198.4" y2="283.5"/>
<line class="st0" x1="226.8" y1="311.8" x2="255.1" y2="283.5"/>
<line class="st0" x1="255.1" y1="255.1" x2="226.8" y2="255.1"/>
<line class="st0" x1="226.8" y1="255.1" x2="198.4" y2="255.1"/>
<line class="st0" x1="198.4" y1="340.2" x2="226.8" y2="311.8"/>
<line class="st0" x1="255.1" y1="340.2" x2="226.8" y2="311.8"/>
<line class="st0" x1="226.8" y1="368.5" x2="198.4" y2="340.2"/>
<line class="st0" x1="226.8" y1="368.5" x2="255.1" y2="340.2"/>
<line class="st0" x1="255.1" y1="311.8" x2="226.8" y2="311.8"/>
<line class="st0" x1="226.8" y1="311.8" x2="198.4" y2="311.8"/>
<line class="st0" x1="255.1" y1="283.5" x2="226.8" y2="283.5"/>
<line class="st0" x1="226.8" y1="283.5" x2="198.4" y2="283.5"/>
<line class="st0" x1="255.1" y1="340.2" x2="226.8" y2="340.2"/>
<line class="st0" x1="226.8" y1="340.2" x2="198.4" y2="340.2"/>
<line class="st0" x1="255.1" y1="283.5" x2="283.5" y2="255.1"/>
<line class="st0" x1="311.8" y1="283.5" x2="283.5" y2="255.1"/>
<line class="st0" x1="283.5" y1="311.8" x2="255.1" y2="283.5"/>
<line class="st0" x1="283.5" y1="311.8" x2="311.8" y2="283.5"/>
<line class="st0" x1="311.8" y1="255.1" x2="283.5" y2="255.1"/>
<line class="st0" x1="283.5" y1="255.1" x2="255.1" y2="255.1"/>
<line class="st0" x1="255.1" y1="340.2" x2="283.5" y2="311.8"/>
<line class="st0" x1="311.8" y1="340.2" x2="283.5" y2="311.8"/>
<line class="st0" x1="283.5" y1="368.5" x2="255.1" y2="340.2"/>
<line class="st0" x1="283.5" y1="368.5" x2="311.8" y2="340.2"/>
<line class="st0" x1="311.8" y1="311.8" x2="283.5" y2="311.8"/>
<line class="st0" x1="283.5" y1="311.8" x2="255.1" y2="311.8"/>
<line class="st0" x1="311.8" y1="283.5" x2="283.5" y2="283.5"/>
<line class="st0" x1="283.5" y1="283.5" x2="255.1" y2="283.5"/>
<line class="st0" x1="311.8" y1="340.2" x2="283.5" y2="340.2"/>
<line class="st0" x1="283.5" y1="340.2" x2="255.1" y2="340.2"/>
<line class="st0" x1="311.8" y1="283.5" x2="340.2" y2="255.1"/>
<line class="st0" x1="368.5" y1="283.5" x2="340.2" y2="255.1"/>
<line class="st0" x1="340.2" y1="311.8" x2="311.8" y2="283.5"/>
<line class="st0" x1="340.2" y1="311.8" x2="368.5" y2="283.5"/>
<line class="st0" x1="368.5" y1="255.1" x2="340.2" y2="255.1"/>
<line class="st0" x1="340.2" y1="255.1" x2="311.8" y2="255.1"/>
<line class="st0" x1="311.8" y1="340.2" x2="340.2" y2="311.8"/>
<line class="st0" x1="368.5" y1="340.2" x2="340.2" y2="311.8"/>
<line class="st0" x1="340.2" y1="368.5" x2="311.8" y2="340.2"/>
<line class="st0" x1="340.2" y1="368.5" x2="368.5" y2="340.2"/>
<line class="st0" x1="368.5" y1="311.8" x2="340.2" y2="311.8"/>
<line class="st0" x1="340.2" y1="311.8" x2="311.8" y2="311.8"/>
<line class="st0" x1="368.5" y1="283.5" x2="340.2" y2="283.5"/>
<line class="st0" x1="340.2" y1="283.5" x2="311.8" y2="283.5"/>
<line class="st0" x1="368.5" y1="340.2" x2="340.2" y2="340.2"/>
<line class="st0" x1="340.2" y1="340.2" x2="311.8" y2="340.2"/>
<line class="st0" x1="28.3" y1="85" x2="28.3" y2="56.7"/>
<line class="st0" x1="28.3" y1="56.7" x2="28.3" y2="28.3"/>
<line class="st0" x1="28.3" y1="141.7" x2="28.3" y2="113.4"/>
<line class="st0" x1="28.3" y1="113.4" x2="28.3" y2="85"/>
<line class="st0" x1="28.3" y1="198.4" x2="28.3" y2="170.1"/>
<line class="st0" x1="28.3" y1="170.1" x2="28.3" y2="141.7"/>
<line class="st0" x1="28.3" y1="255.1" x2="28.3" y2="226.8"/>
<line class="st0" x1="28.3" y1="226.8" x2="28.3" y2="198.4"/>
<line class="st0" x1="28.3" y1="311.8" x2="28.3" y2="283.5"/>
<line class="st0" x1="28.3" y1="283.5" x2="28.3" y2="255.1"/>
<line class="st0" x1="28.3" y1="368.5" x2="28.3" y2="340.2"/>
<line class="st0" x1="28.3" y1="340.2" x2="28.3" y2="311.8"/>
<line class="st0" x1="56.7" y1="85" x2="56.7" y2="56.7"/>
<line class="st0" x1="56.7" y1="56.7" x2="56.7" y2="28.3"/>
<line class="st0" x1="56.7" y1="141.7" x2="56.7" y2="113.4"/>
<line class="st0" x1="56.7" y1="113.4" x2="56.7" y2="85"/>
<line class="st0" x1="56.7" y1="198.4" x2="56.7" y2="170.1"/>
<line class="st0" x1="56.7" y1="170.1" x2="56.7" y2="141.7"/>
<line class="st0" x1="56.7" y1="255.1" x2="56.7" y2="226.8"/>
<line class="st0" x1="56.7" y1="226.8" x2="56.7" y2="198.4"/>
<line class="st0" x1="56.7" y1="311.8" x2="56.7" y2="283.5"/>
<line class="st0" x1="56.7" y1="283.5" x2="56.7" y2="255.1"/>
<line class="st0" x1="56.7" y1="368.5" x2="56.7" y2="340.2"/>
<line class="st0" x1="56.7" y1="340.2" x2="56.7" y2="311.8"/>
<line class="st0" x1="85" y1="85" x2="85" y2="56.7"/>
<line class="st0" x1="85" y1="56.7" x2="85" y2="28.3"/>
<line class="st0" x1="85" y1="141.7" x2="85" y2="113.4"/>
<line class="st0" x1="85" y1="113.4" x2="85" y2="85"/>
<line class="st0" x1="85" y1="198.4" x2="85" y2="170.1"/>
<line class="st0" x1="85" y1="170.1" x2="85" y2="141.7"/>
<line class="st0" x1="85" y1="255.1" x2="85" y2="226.8"/>
<line class="st0" x1="85" y1="226.8" x2="85" y2="198.4"/>
<line class="st0" x1="85" y1="311.8" x2="85" y2="283.5"/>
<line class="st0" x1="85" y1="283.5" x2="85" y2="255.1"/>
<line class="st0" x1="85" y1="368.5" x2="85" y2="340.2"/>
<line class="st0" x1="85" y1="340.2" x2="85" y2="311.8"/>
<line class="st0" x1="113.4" y1="85" x2="113.4" y2="56.7"/>
<line class="st0" x1="113.4" y1="56.7" x2="113.4" y2="28.3"/>
<line class="st0" x1="113.4" y1="141.7" x2="113.4" y2="113.4"/>
<line class="st0" x1="113.4" y1="113.4" x2="113.4" y2="85"/>
<line class="st0" x1="113.4" y1="198.4" x2="113.4" y2="170.1"/>
<line class="st0" x1="113.4" y1="170.1" x2="113.4" y2="141.7"/>
<line class="st0" x1="113.4" y1="255.1" x2="113.4" y2="226.8"/>
<line class="st0" x1="113.4" y1="226.8" x2="113.4" y2="198.4"/>
<line class="st0" x1="113.4" y1="311.8" x2="113.4" y2="283.5"/>
<line class="st0" x1="113.4" y1="283.5" x2="113.4" y2="255.1"/>
<line class="st0" x1="113.4" y1="368.5" x2="113.4" y2="340.2"/>
<line class="st0" x1="113.4" y1="340.2" x2="113.4" y2="311.8"/>
<line class="st0" x1="141.7" y1="85" x2="141.7" y2="56.7"/>
<line class="st0" x1="141.7" y1="56.7" x2="141.7" y2="28.3"/>
<line class="st0" x1="141.7" y1="141.7" x2="141.7" y2="113.4"/>
<line class="st0" x1="141.7" y1="113.4" x2="141.7" y2="85"/>
<line class="st0" x1="141.7" y1="198.4" x2="141.7" y2="170.1"/>
<line class="st0" x1="141.7" y1="170.1" x2="141.7" y2="141.7"/>
<line class="st0" x1="141.7" y1="255.1" x2="141.7" y2="226.8"/>
<line class="st0" x1="141.7" y1="226.8" x2="141.7" y2="198.4"/>
<line class="st0" x1="141.7" y1="311.8" x2="141.7" y2="283.5"/>
<line class="st0" x1="141.7" y1="283.5" x2="141.7" y2="255.1"/>
<line class="st0" x1="141.7" y1="368.5" x2="141.7" y2="340.2"/>
<line class="st0" x1="141.7" y1="340.2" x2="141.7" y2="311.8"/>
<line class="st0" x1="170.1" y1="85" x2="170.1" y2="56.7"/>
<line class="st0" x1="170.1" y1="56.7" x2="170.1" y2="28.3"/>
<line class="st0" x1="170.1" y1="141.7" x2="170.1" y2="113.4"/>
<line class="st0" x1="170.1" y1="113.4" x2="170.1" y2="85"/>
<line class="st0" x1="170.1" y1="198.4" x2="170.1" y2="170.1"/>
<line class="st0" x1="170.1" y1="170.1" x2="170.1" y2="141.7"/>
<line class="st0" x1="170.1" y1="255.1" x2="170.1" y2="226.8"/>
<line class="st0" x1="170.1" y1="226.8" x2="170.1" y2="198.4"/>
<line class="st0" x1="170.1" y1="311.8" x2="170.1" y2="283.5"/>
<line class="st0" x1="170.1" y1="283.5" x2="170.1" y2="255.1"/>
<line class="st0" x1="170.1" y1="368.5" x2="170.1" y2="340.2"/>
<line class="st0" x1="170.1" y1="340.2" x2="170.1" y2="311.8"/>
<line class="st0" x1="198.4" y1="85" x2="198.4" y2="56.7"/>
<line class="st0" x1="198.4" y1="56.7" x2="198.4" y2="28.3"/>
<line class="st0" x1="198.4" y1="141.7" x2="198.4" y2="113.4"/>
<line class="st0" x1="198.4" y1="113.4" x2="198.4" y2="85"/>
<line class="st0" x1="198.4" y1="198.4" x2="198.4" y2="170.1"/>
<line class="st0" x1="198.4" y1="170.1" x2="198.4" y2="141.7"/>
<line class="st0" x1="198.4" y1="255.1" x2="198.4" y2="226.8"/>
<line class="st0" x1="198.4" y1="226.8" x2="198.4" y2="198.4"/>
<line class="st0" x1="198.4" y1="311.8" x2="198.4" y2="283.5"/>
<line class="st0" x1="198.4" y1="283.5" x2="198.4" y2="255.1"/>
<line class="st0" x1="198.4" y1="368.5" x2="198.4" y2="340.2"/>
<line class="st0" x1="198.4" y1="340.2" x2="198.4" y2="311.8"/>
<line class="st0" x1="226.8" y1="85" x2="226.8" y2="56.7"/>
<line class="st0" x1="226.8" y1="56.7" x2="226.8" y2="28.3"/>
<line class="st0" x1="226.8" y1="141.7" x2="226.8" y2="113.4"/>
<line class="st0" x1="226.8" y1="113.4" x2="226.8" y2="85"/>
<line class="st0" x1="226.8" y1="198.4" x2="226.8" y2="170.1"/>
<line class="st0" x1="226.8" y1="170.1" x2="226.8" y2="141.7"/>
<line class="st0" x1="226.8" y1="255.1" x2="226.8" y2="226.8"/>
<line class="st0" x1="226.8" y1="226.8" x2="226.8" y2="198.4"/>
<line class="st0" x1="226.8" y1="311.8" x2="226.8" y2="283.5"/>
<line class="st0" x1="226.8" y1="283.5" x2="226.8" y2="255.1"/>
<line class="st0" x1="226.8" y1="368.5" x2="226.8" y2="340.2"/>
<line class="st0" x1="226.8" y1="340.2" x2="226.8" y2="311.8"/>
<line class="st0" x1="255.1" y1="85" x2="255.1" y2="56.7"/>
<line class="st0" x1="255.1" y1="56.7" x2="255.1" y2="28.3"/>
<line class="st0" x1="255.1" y1="141.7" x2="255.1" y2="113.4"/>
<line class="st0" x1="255.1" y1="113.4" x2="255.1" y2="85"/>
<line class="st0" x1="255.1" y1="198.4" x2="255.1" y2="170.1"/>
<line class="st0" x1="255.1" y1="170.1" x2="255.1" y2="141.7"/>
<line class="st0" x1="255.1" y1="255.1" x2="255.1" y2="226.8"/>
<line class="st0" x1="255.1" y1="226.8" x2="255.1" y2="198.4"/>
<line class="st0" x1="255.1" y1="311.8" x2="255.1" y2="283.5"/>
<line class="st0" x1="255.1" y1="283.5" x2="255.1" y2="255.1"/>
<line class="st0" x1="255.1" y1="368.5" x2="255.1" y2="340.2"/>
<line class="st0" x1="255.1" y1="340.2" x2="255.1" y2="311.8"/>
<line class="st0" x1="283.5" y1="85" x2="283.5" y2="56.7"/>
<line class="st0" x1="283.5" y1="56.7" x2="283.5" y2="28.3"/>
<line class="st0" x1="283.5" y1="141.7" x2="283.5" y2="113.4"/>
<line class="st0" x1="283.5" y1="113.4" x2="283.5" y2="85"/>
<line class="st0" x1="283.5" y1="198.4" x2="283.5" y2="170.1"/>
<line class="st0" x1="283.5" y1="170.1" x2="283.5" y2="141.7"/>
<line class="st0" x1="283.5" y1="255.1" x2="283.5" y2="226.8"/>
<line class="st0" x1="283.5" y1="226.8" x2="283.5" y2="198.4"/>
<line class="st0" x1="283.5" y1="311.8" x2="283.5" y2="283.5"/>
<line class="st0" x1="283.5" y1="283.5" x2="283.5" y2="255.1"/>
<line class="st0" x1="283.5" y1="368.5" x2="283.5" y2="340.2"/>
<line class="st0" x1="283.5" y1="340.2" x2="283.5" y2="311.8"/>
<line class="st0" x1="311.8" y1="85" x2="311.8" y2="56.7"/>
<line class="st0" x1="311.8" y1="56.7" x2="311.8" y2="28.3"/>
<line class="st0" x1="311.8" y1="141.7" x2="311.8" y2="113.4"/>
<line class="st0" x1="311.8" y1="113.4" x2="311.8" y2="85"/>
<line class="st0" x1="311.8" y1="198.4" x2="311.8" y2="170.1"/>
<line class="st0" x1="311.8" y1="170.1" x2="311.8" y2="141.7"/>
<line class="st0" x1="311.8" y1="255.1" x2="311.8" y2="226.8"/>
<line class="st0" x1="311.8" y1="226.8" x2="311.8" y2="198.4"/>
<line class="st0" x1="311.8" y1="311.8" x2="311.8" y2="283.5"/>
<line class="st0" x1="311.8" y1="283.5" x2="311.8" y2="255.1"/>
<line class="st0" x1="311.8" y1="368.5" x2="311.8" y2="340.2"/>
<line class="st0" x1="311.8" y1="340.2" x2="311.8" y2="311.8"/>
<line class="st0" x1="340.2" y1="85" x2="340.2" y2="56.7"/>
<line class="st0" x1="340.2" y1="56.7" x2="340.2" y2="28.3"/>
<line class="st0" x1="340.2" y1="141.7" x2="340.2" y2="113.4"/>
<line class="st0" x1="340.2" y1="113.4" x2="340.2" y2="85"/>
<line class="st0" x1="340.2" y1="198.4" x2="340.2" y2="170.1"/>
<line class="st0" x1="340.2" y1="170.1" x2="340.2" y2="141.7"/>
<line class="st0" x1="340.2" y1="255.1" x2="340.2" y2="226.8"/>
<line class="st0" x1="340.2" y1="226.8" x2="340.2" y2="198.4"/>
<line class="st0" x1="340.2" y1="311.8" x2="340.2" y2="283.5"/>
<line class="st0" x1="340.2" y1="283.5" x2="340.2" y2="255.1"/>
<line class="st0" x1="340.2" y1="368.5" x2="340.2" y2="340.2"/>
<line class="st0" x1="340.2" y1="340.2" x2="340.2" y2="311.8"/>
</svg>
